<svg xmlns="http://www.w3.org/2000/svg" viewBox="0 0 120 116" width="480" height="464">
  <defs>
    <radialGradient id="body" cx="50%" cy="30%" r="80%">
      <stop offset="0%" stop-color="#FF9F4A"/>
      <stop offset="60%" stop-color="#F0701E"/>
      <stop offset="100%" stop-color="#D4500A"/>
    </radialGradient>
  </defs>
  <g><ellipse cx="14" cy="82" rx="8" ry="12" fill="#D4500A" transform="rotate(24 14 82)"/></g>
  <g><ellipse cx="106" cy="82" rx="8" ry="12" fill="#D4500A" transform="rotate(-24 106 82)"/></g>
  <g>
    <path d="M60 18 C 59 12 59 8 61 3" fill="none" stroke="#4E7A3A" stroke-width="3" stroke-linecap="round"/>
    <path d="M61 7 C 68 1 78 1 84 6 C 78 12 68 13 61 7 Z" fill="#5FA14A"/>
    <path d="M60 8 C 55 3 48 2 43 5 C 47 11 55 12 60 8 Z" fill="#7CBF5E"/>
    <path d="M60 14 C 90 14 106 40 106 68 C 106 96 86 110 60 110 C 34 110 14 96 14 68 C 14 40 30 14 60 14 Z" fill="url(#body)"/>
    <ellipse cx="60" cy="102" rx="26" ry="9" fill="#FFB067" opacity="0.22"/>
    <ellipse cx="43" cy="60" rx="11.5" ry="13" fill="#FFF8F0"/>
    <circle cx="43" cy="61" r="5.4" fill="#2B1A12"/><circle cx="45" cy="58.6" r="1.9" fill="#FFF8F0"/>
    <ellipse cx="77" cy="60" rx="11.5" ry="13" fill="#FFF8F0"/>
    <circle cx="77" cy="61" r="5.4" fill="#2B1A12"/><circle cx="79" cy="58.6" r="1.9" fill="#FFF8F0"/>
    <ellipse cx="29" cy="75" rx="6.5" ry="3.6" fill="#FF7A59" opacity="0.55"/>
    <ellipse cx="91" cy="75" rx="6.5" ry="3.6" fill="#FF7A59" opacity="0.55"/>
    <path d="M46 79 Q 60 92 74 79" fill="none" stroke="#FFF4E8" stroke-width="5" stroke-linecap="round"/>
  </g>
</svg>
